<svg width="40" height="38" viewBox="0 0 40 38" fill="none" xmlns="http://www.w3.org/2000/svg" xmlns:xlink="http://www.w3.org/1999/xlink">
<path d="M38.083,20.686C37.898,21.398 37.631,22.065 37.099,22.602C36.319,23.389 35.367,23.731 34.273,23.658C33.881,23.631 33.71,23.759 33.604,24.135C33.444,24.704 33.196,25.248 32.915,25.769C32.8,25.982 32.824,26.11 33.002,26.269C33.629,26.831 34.126,27.481 34.294,28.334C34.519,29.47 34.296,30.508 33.516,31.371C32.878,32.076 32.206,32.758 31.495,33.39C30.097,34.634 28.075,34.56 26.714,33.263C26.132,32.707 26.135,32.715 25.381,33.042C24.928,33.238 24.466,33.414 24,33.578C23.807,33.646 23.731,33.735 23.736,33.946C23.748,34.463 23.752,34.98 23.592,35.487C23.126,36.962 21.805,37.951 20.256,37.96C19.463,37.964 18.67,37.963 17.877,37.96C15.924,37.952 14.379,36.502 14.373,34.55C14.371,33.851 14.184,33.514 13.508,33.352C13.059,33.244 12.635,33.011 12.218,32.799C12.01,32.693 11.892,32.726 11.747,32.885C11.17,33.517 10.514,34.025 9.642,34.19C8.529,34.402 7.505,34.197 6.657,33.445C5.918,32.789 5.209,32.092 4.554,31.353C3.352,29.998 3.431,27.996 4.678,26.669C4.879,26.455 5.226,26.292 5.245,26.018C5.262,25.771 5.029,25.51 4.921,25.248C4.746,24.828 4.563,24.408 4.422,23.976C4.342,23.734 4.233,23.646 3.977,23.662C3.036,23.72 2.151,23.553 1.388,22.953C0.499,22.254 0.02,21.345 0.006,20.21C-0.004,19.383 -0.001,18.555 0.006,17.726C0.021,15.897 1.493,14.334 3.332,14.33C4.097,14.328 4.493,14.131 4.655,13.375C4.744,12.962 4.971,12.574 5.172,12.192C5.285,11.977 5.261,11.85 5.084,11.692C4.481,11.158 3.993,10.538 3.812,9.736C3.542,8.539 3.774,7.445 4.617,6.534C5.238,5.862 5.883,5.209 6.562,4.596C7.951,3.341 9.984,3.389 11.344,4.672C11.55,4.866 11.737,5.18 11.969,5.22C12.201,5.26 12.477,5.015 12.738,4.909C13.184,4.728 13.63,4.545 14.086,4.388C14.283,4.32 14.353,4.227 14.348,4.019C14.337,3.525 14.317,3.029 14.468,2.549C14.874,1.255 15.74,0.437 17.051,0.084C17.146,0.058 17.238,0.028 17.332,0C18.472,0 19.613,0 20.753,0C20.809,0.023 20.864,0.053 20.922,0.067C22.301,0.377 23.188,1.215 23.614,2.549C23.767,3.028 23.749,3.525 23.735,4.019C23.729,4.232 23.81,4.318 24.002,4.385C24.468,4.549 24.926,4.735 25.383,4.921C25.633,5.023 25.895,5.259 26.117,5.222C26.339,5.184 26.518,4.885 26.715,4.698C28.097,3.381 30.142,3.333 31.553,4.62C32.22,5.228 32.858,5.87 33.468,6.534C34.297,7.436 34.536,8.516 34.278,9.702C34.1,10.52 33.611,11.151 33,11.695C32.822,11.854 32.8,11.982 32.914,12.195C33.195,12.716 33.442,13.26 33.602,13.829C33.708,14.205 33.88,14.332 34.271,14.305C35.335,14.232 36.269,14.556 37.044,15.308C37.607,15.853 37.891,16.539 38.08,17.277L38.08,20.687L38.083,20.686ZM2.233,18.962C2.233,19.345 2.227,19.728 2.234,20.111C2.25,20.903 2.782,21.426 3.575,21.432C4.071,21.436 4.567,21.43 5.063,21.434C5.695,21.439 6.079,21.723 6.253,22.339C6.575,23.484 7.023,24.575 7.616,25.608C7.945,26.181 7.871,26.636 7.401,27.117C7.063,27.461 6.715,27.796 6.377,28.141C5.793,28.735 5.791,29.446 6.377,30.041C6.898,30.57 7.424,31.095 7.955,31.614C8.546,32.192 9.264,32.185 9.862,31.601C10.216,31.255 10.559,30.898 10.916,30.555C11.362,30.125 11.833,30.052 12.372,30.358C13.43,30.96 14.545,31.416 15.719,31.74C16.285,31.896 16.575,32.3 16.582,32.888C16.588,33.407 16.579,33.926 16.585,34.446C16.594,35.156 17.096,35.705 17.809,35.729C18.625,35.756 19.445,35.754 20.263,35.73C20.99,35.709 21.496,35.158 21.504,34.426C21.509,33.92 21.502,33.412 21.506,32.906C21.512,32.295 21.798,31.9 22.388,31.736C23.55,31.416 24.654,30.965 25.702,30.367C26.26,30.048 26.721,30.119 27.186,30.569C27.551,30.921 27.901,31.289 28.267,31.64C28.82,32.172 29.542,32.181 30.093,31.651C30.656,31.111 31.207,30.56 31.75,30C32.283,29.45 32.279,28.733 31.749,28.179C31.398,27.813 31.028,27.464 30.675,27.101C30.219,26.635 30.144,26.178 30.463,25.623C31.062,24.579 31.515,23.477 31.839,22.321C32.004,21.73 32.398,21.44 33.007,21.434C33.515,21.429 34.024,21.436 34.532,21.432C35.284,21.425 35.832,20.912 35.849,20.165C35.868,19.375 35.868,18.583 35.849,17.793C35.831,17.047 35.283,16.536 34.529,16.53C34.046,16.526 33.562,16.53 33.078,16.529C32.388,16.526 32.014,16.256 31.829,15.603C31.508,14.471 31.065,13.391 30.48,12.369C30.14,11.775 30.212,11.329 30.702,10.832C31.05,10.48 31.409,10.138 31.751,9.78C32.28,9.227 32.281,8.51 31.748,7.96C31.213,7.41 30.668,6.869 30.118,6.334C29.54,5.773 28.821,5.782 28.238,6.35C27.875,6.704 27.525,7.072 27.157,7.422C26.722,7.837 26.25,7.911 25.731,7.613C24.674,7.006 23.559,6.549 22.385,6.225C21.797,6.063 21.512,5.666 21.506,5.053C21.501,4.547 21.509,4.039 21.504,3.533C21.496,2.8 20.99,2.251 20.261,2.232C19.443,2.209 18.624,2.207 17.807,2.234C17.096,2.256 16.594,2.807 16.585,3.518C16.579,4.037 16.588,4.556 16.582,5.075C16.575,5.664 16.284,6.068 15.718,6.223C14.544,6.546 13.429,7.003 12.371,7.606C11.831,7.914 11.365,7.841 10.916,7.407C10.55,7.056 10.2,6.688 9.835,6.335C9.267,5.786 8.545,5.779 7.983,6.324C7.432,6.858 6.889,7.4 6.352,7.949C5.8,8.515 5.803,9.231 6.352,9.796C6.706,10.16 7.075,10.509 7.427,10.874C7.864,11.324 7.943,11.79 7.636,12.323C7.03,13.378 6.57,14.488 6.246,15.66C6.084,16.244 5.683,16.525 5.064,16.53C4.568,16.534 4.072,16.528 3.576,16.532C2.781,16.538 2.251,17.059 2.235,17.852C2.228,18.223 2.234,18.593 2.234,18.965L2.233,18.962Z" fill="#000000"/>
<path d="M27.336,18.963C27.363,23.497 23.626,27.237 19.051,27.25C14.509,27.264 10.8,23.586 10.748,19.016C10.698,14.495 14.422,10.754 19.016,10.711C23.554,10.668 27.308,14.391 27.336,18.962L27.336,18.963ZM19.048,25C22.399,24.998 25.085,22.312 25.08,18.967C25.075,15.64 22.393,12.967 19.057,12.962C15.699,12.957 13.008,15.632 13.006,18.977C13.004,22.321 15.694,25.002 19.048,25Z" fill="#000000"/>
</svg>
