<svg width="46" height="34" viewBox="0 0 46 34" fill="none" xmlns="http://www.w3.org/2000/svg" xmlns:xlink="http://www.w3.org/1999/xlink">
<path d="M5.68,2.838C4.742,2.255 3.509,2.543 2.926,3.481C2.343,4.42 2.631,5.653 3.57,6.236L5.68,2.838ZM23,15.952L21.945,17.651C22.572,18.041 23.364,18.053 24.003,17.682L23,15.952ZM43.691,6.267C44.646,5.713 44.972,4.489 44.418,3.534C43.864,2.578 42.64,2.253 41.684,2.807L43.691,6.267ZM4,26.926L4,7.074L0,7.074L0,26.926L4,26.926ZM7.25,4L38.75,4L38.75,0L7.25,0L7.25,4ZM42,7.074L42,26.926L46,26.926L46,7.074L42,7.074ZM42,26.926C42,28.56 40.61,30 38.75,30L38.75,34C42.689,34 46,30.897 46,26.926L42,26.926ZM38.75,4C40.61,4 42,5.44 42,7.074L46,7.074C46,3.103 42.689,0 38.75,0L38.75,4ZM4,7.074C4,5.44 5.39,4 7.25,4L7.25,0C3.311,0 0,3.103 0,7.074L4,7.074ZM7.25,30C5.39,30 4,28.56 4,26.926L0,26.926C0,30.897 3.311,34 7.25,34L7.25,30ZM3.57,6.236L21.945,17.651L24.055,14.253L5.68,2.838L3.57,6.236ZM24.003,17.682L43.691,6.267L41.684,2.807L21.997,14.222L24.003,17.682ZM38.75,30L7.25,30L7.25,34L38.75,34L38.75,30Z" fill="#000000"/>
</svg>
