<svg width="36" height="40" viewBox="0 0 36 40" fill="none" xmlns="http://www.w3.org/2000/svg" xmlns:xlink="http://www.w3.org/1999/xlink">
<path d="M2.211,29.125L0.551,28.009L0.551,28.009L2.211,29.125ZM4.537,21.67L2.537,21.648L2.537,21.67L4.537,21.67ZM4.586,17.163L6.586,17.184L6.586,17.163L4.586,17.163ZM33.801,29.161L35.482,28.078L35.482,28.078L33.801,29.161ZM31.563,21.67L29.563,21.647L29.563,21.67L31.563,21.67ZM31.612,17.386L33.612,17.409L33.612,17.386L31.612,17.386ZM12.667,36C11.562,36 10.667,36.895 10.667,38C10.667,39.105 11.562,40 12.667,40L12.667,36ZM23.333,40C24.438,40 25.333,39.105 25.333,38C25.333,36.895 24.438,36 23.333,36L23.333,40ZM3.871,30.24C5.216,28.24 6.537,25.274 6.537,21.67L2.537,21.67C2.537,24.287 1.574,26.488 0.551,28.009L3.871,30.24ZM6.537,21.692L6.586,17.184L2.586,17.141L2.537,21.648L6.537,21.692ZM35.482,28.078C34.502,26.556 33.563,24.33 33.563,21.67L29.563,21.67C29.563,25.274 30.83,28.243 32.12,30.244L35.482,28.078ZM33.563,21.693L33.612,17.409L29.612,17.363L29.563,21.647L33.563,21.693ZM33.612,17.386C33.612,8.021 26.845,0 18,0L18,4C24.19,4 29.612,9.756 29.612,17.386L33.612,17.386ZM32.987,33.25C34.591,33.25 35.457,32.006 35.762,31.196C36.084,30.34 36.156,29.122 35.482,28.078L32.12,30.244C32.02,30.09 32.003,29.961 32.001,29.909C31.998,29.857 32.005,29.82 32.018,29.786C32.029,29.757 32.073,29.654 32.207,29.535C32.356,29.402 32.628,29.25 32.987,29.25L32.987,33.25ZM6.586,17.163C6.586,9.656 11.919,4 18,4L18,0C9.264,0 2.586,7.921 2.586,17.163L6.586,17.163ZM3.015,29.25C3.382,29.25 3.656,29.408 3.803,29.541C3.935,29.66 3.975,29.762 3.984,29.786C3.995,29.816 4.002,29.849 3.999,29.9C3.996,29.95 3.978,30.082 3.871,30.24L0.551,28.009C-0.154,29.059 -0.087,30.298 0.227,31.158C0.523,31.969 1.385,33.25 3.015,33.25L3.015,29.25ZM32.987,29.25L3.015,29.25L3.015,33.25L32.987,33.25L32.987,29.25ZM12.667,40L23.333,40L23.333,36L12.667,36L12.667,40Z" fill="#000000"/>
</svg>
