<svg width="30" height="39" viewBox="0 0 30 39" fill="none" xmlns="http://www.w3.org/2000/svg">
<path d="M21.3571 25.4387C19.9323 25.3385 18.5606 24.8372 17.4526 23.935C15.2892 24.386 13.2312 25.0375 11.1734 25.8397C9.53781 28.5965 8.00752 30 6.68835 30C6.42446 30 6.10806 29.95 5.89695 29.7995C5.3164 29.549 5 28.9975 5 28.4462C5 27.995 5.10555 26.742 10.1181 24.6867C11.2792 22.6817 12.1759 20.6267 12.9148 18.4715C12.2814 17.2685 10.9098 14.3109 11.8592 12.8074C12.1759 12.2559 12.8092 11.9552 13.4953 12.0054C14.0228 12.0054 14.5503 12.2559 14.867 12.6569C15.5531 13.5592 15.5003 15.4639 14.6031 18.271C15.4476 19.7725 16.5536 21.1283 17.8745 22.281C18.9829 22.0802 20.0907 21.93 21.1987 21.93C23.6787 21.98 24.0482 23.0827 23.9954 23.7345C23.9954 25.4387 22.254 25.4387 21.3571 25.4387ZM6.58306 28.5462L6.74139 28.4962C7.48001 28.2457 8.0603 27.7445 8.48252 27.0927C7.69086 27.3935 7.05779 27.8945 6.58306 28.5462ZM13.6006 13.5092H13.4423C13.3895 13.5092 13.284 13.5092 13.2312 13.5592C13.0201 14.4112 13.1784 15.3134 13.5478 16.1154C13.8645 15.2634 13.8645 14.3612 13.6006 13.5092ZM13.9701 20.7772L13.9173 20.8772L13.8645 20.8272C13.3895 21.9802 12.8617 23.133 12.2814 24.2357L12.387 24.1857V24.2857C13.5604 23.8827 14.7586 23.5479 15.9751 23.2832L15.9223 23.2332H16.0806C15.289 22.4812 14.5503 21.6292 13.9701 20.7772ZM21.1459 23.4337C20.6709 23.4337 20.249 23.4337 19.774 23.5337C20.3018 23.7845 20.8295 23.8847 21.3571 23.935C21.7265 23.985 22.0959 23.935 22.4123 23.8347C22.4123 23.6842 22.2012 23.4337 21.1459 23.4337Z" fill="black"/>
<path d="M17.3333 1V10.25C17.3333 11.5272 18.378 12.5625 19.6667 12.5625H29M17.7337 1H5.66667C3.08934 1 1 3.07068 1 5.625V33.375C1 35.9293 3.08934 38 5.66667 38H24.3333C26.9107 38 29 35.9293 29 33.375V12.1657C29 10.9391 28.5083 9.76273 27.6332 8.89537L21.0335 2.35463C20.1583 1.48728 18.9713 1 17.7337 1Z" stroke="black"/>
</svg>

