<svg width="13" height="13" viewBox="0 0 13 13" fill="none" xmlns="http://www.w3.org/2000/svg">
<path d="M7.29845 3.56895C7.12167 3.35681 6.80639 3.32815 6.59425 3.50493C6.38211 3.68171 6.35345 3.997 6.53023 4.20914L7.29845 3.56895ZM8.98596 6.37498L9.37007 6.69508C9.52459 6.50965 9.52459 6.24031 9.37007 6.05489L8.98596 6.37498ZM6.53023 8.54083C6.35345 8.75297 6.38211 9.06825 6.59425 9.24503C6.80639 9.42181 7.12167 9.39315 7.29845 9.18101L6.53023 8.54083ZM4.01408 5.87498C3.73794 5.87498 3.51408 6.09884 3.51408 6.37498C3.51408 6.65113 3.73794 6.87498 4.01408 6.87498L4.01408 5.87498ZM6.53023 4.20914L8.60185 6.69508L9.37007 6.05489L7.29845 3.56895L6.53023 4.20914ZM8.60185 6.05489L6.53023 8.54083L7.29845 9.18101L9.37007 6.69508L8.60185 6.05489ZM8.98596 5.87498L4.01408 5.87498L4.01408 6.87498L8.98596 6.87498L8.98596 5.87498ZM10.1239 9.99892C8.12248 12.0004 4.87751 12.0004 2.87608 9.99892L2.16897 10.706C4.56093 13.098 8.43907 13.098 10.831 10.706L10.1239 9.99892ZM2.87608 9.99892C0.87464 7.99748 0.874641 4.75251 2.87608 2.75108L2.16897 2.04397C-0.22299 4.43593 -0.222991 8.31407 2.16897 10.706L2.87608 9.99892ZM2.87608 2.75108C4.87752 0.749642 8.12249 0.749642 10.1239 2.75108L10.831 2.04397C8.43907 -0.347989 4.56093 -0.347989 2.16897 2.04397L2.87608 2.75108ZM10.1239 2.75108C12.1254 4.75252 12.1254 7.99749 10.1239 9.99892L10.831 10.706C13.223 8.31407 13.223 4.43593 10.831 2.04397L10.1239 2.75108Z" fill="#01215B"/>
</svg>
