<svg width="23" height="23" viewBox="0 0 23 23" fill="none" xmlns="http://www.w3.org/2000/svg">
<path d="M0.199951 21.9999C0.199889 22.5522 0.647554 23 1.19984 23C1.75212 23.0001 2.19989 22.5524 2.19995 22.0001L0.199951 21.9999ZM1.20039 18.0996L2.20039 18.0997L1.20039 18.0996ZM12.25 15.2C12.8022 15.2 13.25 14.7523 13.25 14.2C13.25 13.6477 12.8022 13.2 12.25 13.2V15.2ZM22 16.5C22.5522 16.5 23 16.0523 23 15.5C23 14.9477 22.5522 14.5 22 14.5V16.5ZM16.15 14.5C15.5977 14.5 15.15 14.9477 15.15 15.5C15.15 16.0523 15.5977 16.5 16.15 16.5V14.5ZM18.075 18.4249C18.075 18.9771 18.5227 19.4249 19.075 19.4249C19.6272 19.4249 20.075 18.9771 20.075 18.4249H18.075ZM20.075 12.5749C20.075 12.0226 19.6272 11.5749 19.075 11.5749C18.5227 11.5749 18.075 12.0226 18.075 12.5749H20.075ZM13.2 5.10001C13.2 6.70164 11.9016 8.00001 10.3 8.00001V10C13.0061 10 15.2 7.80621 15.2 5.10001H13.2ZM10.3 8.00001C8.69833 8.00001 7.39995 6.70164 7.39995 5.10001H5.39995C5.39995 7.80621 7.59375 10 10.3 10V8.00001ZM7.39995 5.10001C7.39995 3.49839 8.69833 2.20001 10.3 2.20001V0.200012C7.59375 0.200012 5.39995 2.39382 5.39995 5.10001H7.39995ZM10.3 2.20001C11.9016 2.20001 13.2 3.49839 13.2 5.10001H15.2C15.2 2.39382 13.0061 0.200012 10.3 0.200012V2.20001ZM2.19995 22.0001L2.20039 18.0997L0.20039 18.0995L0.199951 21.9999L2.19995 22.0001ZM5.10039 13.2C2.39441 13.2 0.200694 15.3935 0.20039 18.0995L2.20039 18.0997C2.20057 16.4982 3.49889 15.2 5.10039 15.2V13.2ZM5.10039 15.2H12.25V13.2H5.10039V15.2ZM22 14.5H19.075V16.5H22V14.5ZM19.075 14.5H16.15V16.5H19.075V14.5ZM20.075 18.4249V15.5H18.075V18.4249H20.075ZM20.075 15.5V12.5749H18.075V15.5H20.075Z" fill="#A3852F"/>
</svg>
