<svg width="23" height="34" viewBox="0 0 23 34" fill="none" xmlns="http://www.w3.org/2000/svg">
<path fill-rule="evenodd" clip-rule="evenodd" d="M0.000584514 16.9655C0.000584514 12.8061 -0.0011329 8.64668 0.00131997 4.48729C0.00254641 2.27267 1.3802 0.563867 3.54278 0.0827518C3.87122 0.00972204 4.20567 0.0028727 4.53914 0.00275037C9.1795 0.000548467 13.8198 -0.00214275 18.4601 0.00275037C20.6953 0.0050746 22.3786 1.31141 22.8862 3.42291C22.9641 3.74708 22.9997 4.07786 22.9997 4.41255C22.9989 12.7931 23.0021 21.1735 22.9973 29.5539C22.9958 32.0377 21.1387 33.9562 18.6277 33.9742C13.8763 34.0084 9.12431 34.0088 4.37284 33.9742C1.82835 33.9558 0.00266906 32.0315 0.00131997 29.4806C-0.00101026 25.3088 0.000584514 21.1371 0.000584514 16.9655ZM2.39741 16.9809C2.39741 21.1284 2.41446 25.2763 2.38809 29.4237C2.37902 30.8584 3.45043 31.6192 4.58795 31.6102C9.2039 31.5731 13.8202 31.595 18.4365 31.5937C18.646 31.5937 18.8557 31.6043 19.0639 31.5525C20.0646 31.3029 20.6019 30.5446 20.6021 29.362C20.6028 21.1162 20.6025 12.8703 20.6017 4.62442C20.6017 4.4764 20.5969 4.3279 20.5829 4.18086C20.5011 3.31478 19.9466 2.6739 19.0993 2.44539C18.7934 2.36294 18.4786 2.4394 18.1781 2.38533C17.4669 2.25725 17.0768 2.54778 16.8406 3.21496C16.5449 4.05021 15.895 4.37401 15.0126 4.36606C12.6737 4.34515 10.3346 4.35921 7.99549 4.35811C7.84722 4.35799 7.69845 4.35101 7.55091 4.3367C7.01998 4.2852 6.61955 4.02464 6.36187 3.56127C6.19422 3.25973 6.03687 2.95146 5.89534 2.63683C5.81354 2.45518 5.71051 2.37726 5.50276 2.38668C5.10747 2.40466 4.71072 2.38704 4.31495 2.3945C3.4963 2.40992 2.78399 2.92981 2.51135 3.69876C2.40183 4.00764 2.39778 4.32814 2.39778 4.64901C2.39717 8.75971 2.39741 12.8702 2.39741 16.9809Z" fill="#A38526"/>
<path fill-rule="evenodd" clip-rule="evenodd" d="M11.1987 26.0032C11.7811 26.0032 12.3638 25.9947 12.9462 26.0053C13.7662 26.02 14.3778 26.6152 14.3794 27.3836C14.3809 28.1464 13.8111 28.7368 12.9913 28.7525C11.7842 28.7754 10.5758 28.7768 9.36877 28.7511C8.55691 28.7339 7.98819 28.1264 8.00019 27.3649C8.01204 26.6095 8.60926 26.0321 9.40842 26.0036C9.43679 26.0026 9.46515 26.0032 9.49366 26.0032C10.0619 26.0031 10.6302 26.0031 11.1987 26.0032Z" fill="#A38526"/>
</svg>
