<svg width="40" height="38" viewBox="0 0 40 38" fill="none" xmlns="http://www.w3.org/2000/svg">
<mask id="path-1-inside-1_69_281" fill="white">
<path d="M15.6231 26.3345C15.4596 26.3352 15.2964 26.3356 15.1335 26.335C15.2182 26.3352 15.3022 26.3367 15.3871 26.3367C15.4655 26.3367 15.5445 26.3349 15.6231 26.3345Z"/>
</mask>
<path d="M15.6231 26.3345C15.4596 26.3352 15.2964 26.3356 15.1335 26.335C15.2182 26.3352 15.3022 26.3367 15.3871 26.3367C15.4655 26.3367 15.5445 26.3349 15.6231 26.3345Z" fill="#A3852F"/>
<path d="M15.6231 26.3345L15.6402 29.3345L15.6108 23.3345L15.6231 26.3345ZM15.1335 26.335L15.1415 23.335L15.1212 29.3349L15.1335 26.335ZM15.6108 23.3345C15.4491 23.3352 15.2959 23.3356 15.1459 23.335L15.1212 29.3349C15.2969 29.3357 15.4702 29.3352 15.6354 29.3345L15.6108 23.3345ZM15.1256 29.3349C15.1546 29.335 15.1844 29.3353 15.2305 29.3358C15.2722 29.3362 15.328 29.3367 15.3871 29.3367V23.3367C15.2271 23.3367 15.3701 23.3356 15.1415 23.335L15.1256 29.3349ZM15.3871 29.3367C15.4471 29.3367 15.5031 29.3361 15.5433 29.3355C15.589 29.335 15.6144 29.3346 15.6402 29.3345L15.6061 23.3346C15.424 23.3356 15.4895 23.3367 15.3871 23.3367V29.3367Z" fill="#A38526" mask="url(#path-1-inside-1_69_281)"/>
<mask id="path-3-inside-2_69_281" fill="white">
<path d="M25.008 37.753H9.96267C6.69897 37.753 4.0437 35.0977 4.0437 31.834V27.0512C4.0437 26.8884 4.11451 26.7341 4.2378 26.628C4.36132 26.5217 4.52526 26.4741 4.68518 26.4991C8.39425 27.0582 11.995 27.3416 15.3869 27.3416C21.0267 27.3416 26.0015 26.5514 30.1729 24.9928C30.3442 24.9285 30.5361 24.9524 30.6867 25.0571C30.837 25.1614 30.9268 25.3327 30.9268 25.5159V31.8338C30.927 35.0977 28.2717 37.753 25.008 37.753ZM5.16049 27.6974V31.834C5.16049 34.4819 7.31477 36.6362 9.96267 36.6362H25.008C27.6559 36.6362 29.8102 34.4819 29.8102 31.834V26.3099C25.6741 27.7361 20.8268 28.4586 15.3871 28.4586C12.1357 28.4586 8.69824 28.2027 5.16049 27.6974Z"/>
</mask>
<path d="M25.008 37.753H9.96267C6.69897 37.753 4.0437 35.0977 4.0437 31.834V27.0512C4.0437 26.8884 4.11451 26.7341 4.2378 26.628C4.36132 26.5217 4.52526 26.4741 4.68518 26.4991C8.39425 27.0582 11.995 27.3416 15.3869 27.3416C21.0267 27.3416 26.0015 26.5514 30.1729 24.9928C30.3442 24.9285 30.5361 24.9524 30.6867 25.0571C30.837 25.1614 30.9268 25.3327 30.9268 25.5159V31.8338C30.927 35.0977 28.2717 37.753 25.008 37.753ZM5.16049 27.6974V31.834C5.16049 34.4819 7.31477 36.6362 9.96267 36.6362H25.008C27.6559 36.6362 29.8102 34.4819 29.8102 31.834V26.3099C25.6741 27.7361 20.8268 28.4586 15.3871 28.4586C12.1357 28.4586 8.69824 28.2027 5.16049 27.6974Z" fill="#A3852F"/>
<path d="M4.2378 26.628L6.19458 28.902L6.19491 28.9017L4.2378 26.628ZM4.68518 26.4991L4.22155 29.4631L4.22979 29.4644L4.23805 29.4656L4.68518 26.4991ZM30.1729 24.9928L31.2229 27.803L31.2275 27.8013L30.1729 24.9928ZM30.6867 25.0571L28.9731 27.5196L28.9764 27.5218L30.6867 25.0571ZM30.9268 31.8338H27.9268V31.834L30.9268 31.8338ZM5.16049 27.6974L5.58462 24.7276L2.16049 24.2385V27.6974H5.16049ZM29.8102 26.3099H32.8102V22.1022L28.8323 23.4738L29.8102 26.3099ZM25.008 34.753H9.96267V40.753H25.008V34.753ZM9.96267 34.753C8.35583 34.753 7.0437 33.4408 7.0437 31.834H1.0437C1.0437 36.7546 5.04212 40.753 9.96267 40.753V34.753ZM7.0437 31.834V27.0512H1.0437V31.834H7.0437ZM7.0437 27.0512C7.0437 27.7617 6.73392 28.4379 6.19458 28.902L2.28102 24.354C1.49509 25.0303 1.0437 26.0151 1.0437 27.0512H7.0437ZM6.19491 28.9017C5.66262 29.3599 4.94481 29.5762 4.22155 29.4631L5.14882 23.5352C4.10571 23.372 3.06001 23.6835 2.28069 24.3543L6.19491 28.9017ZM4.23805 29.4656C8.07982 30.0447 11.8306 30.3416 15.3869 30.3416V24.3416C12.1594 24.3416 8.70868 24.0717 5.13232 23.5326L4.23805 29.4656ZM15.3869 30.3416C21.2938 30.3416 26.6395 29.5156 31.2229 27.803L29.1229 22.1825C25.3635 23.5872 20.7596 24.3416 15.3869 24.3416V30.3416ZM31.2275 27.8013C30.4752 28.0838 29.6321 27.9782 28.9731 27.5196L32.4002 22.5946C31.4401 21.9266 30.2133 21.7731 29.1184 22.1842L31.2275 27.8013ZM28.9764 27.5218C28.3197 27.0662 27.9268 26.3171 27.9268 25.5159H33.9268C33.9268 24.3484 33.3542 23.2567 32.397 22.5924L28.9764 27.5218ZM27.9268 25.5159V31.8338H33.9268V25.5159H27.9268ZM27.9268 31.834C27.9269 33.4409 26.6148 34.753 25.008 34.753V40.753C29.9286 40.753 33.9271 36.7545 33.9268 31.8336L27.9268 31.834ZM2.16049 27.6974V31.834H8.16049V27.6974H2.16049ZM2.16049 31.834C2.16049 36.1388 5.65791 39.6362 9.96267 39.6362V33.6362C8.97162 33.6362 8.16049 32.825 8.16049 31.834H2.16049ZM9.96267 39.6362H25.008V33.6362H9.96267V39.6362ZM25.008 39.6362C29.3128 39.6362 32.8102 36.1388 32.8102 31.834H26.8102C26.8102 32.825 25.9991 33.6362 25.008 33.6362V39.6362ZM32.8102 31.834V26.3099H26.8102V31.834H32.8102ZM28.8323 23.4738C25.0765 24.7688 20.5714 25.4586 15.3871 25.4586V31.4586C21.0822 31.4586 26.2717 30.7033 30.7881 29.1461L28.8323 23.4738ZM15.3871 25.4586C12.2908 25.4586 8.99562 25.2147 5.58462 24.7276L4.73636 30.6673C8.40087 31.1906 11.9806 31.4586 15.3871 31.4586V25.4586Z" fill="#A38526" mask="url(#path-3-inside-2_69_281)"/>
<mask id="path-5-inside-3_69_281" fill="white">
<path d="M13.2777 17.6207C13.1643 17.6207 13.0506 17.5863 12.9534 17.5168C10.7545 15.9479 9.36519 13.9659 9.30712 13.8823L8.46774 12.6503L7.63931 13.8834C6.7939 15.1421 5.9103 16.2756 5.01352 17.2528C4.85761 17.4225 4.61371 17.4786 4.39951 17.3957C4.18509 17.3122 4.0437 17.1054 4.0437 16.8753V5.91897C4.0437 2.65527 6.69897 0 9.96267 0H25.008C28.2717 0 30.927 2.65527 30.927 5.91897V7.42551C30.927 7.61872 30.8271 7.79807 30.663 7.89992C30.4988 8.002 30.2935 8.0116 30.1207 7.92583L23.7081 4.7488L23.2721 5.6802C23.2401 5.74877 19.9706 12.6574 13.6166 17.5059C13.5167 17.5825 13.3972 17.6207 13.2777 17.6207ZM8.46461 11.0953C8.64933 11.0953 8.82198 11.1866 8.92607 11.3394L10.2273 13.2493C10.237 13.2634 11.4172 14.9471 13.2697 16.3623C19.1554 11.722 22.2299 5.27324 22.2607 5.20735L22.9384 3.75933C23.002 3.6233 23.1177 3.51877 23.2596 3.46896C23.4012 3.41938 23.5569 3.42876 23.6918 3.49532L29.8104 6.52583V5.91919C29.8104 3.27129 27.6561 1.11701 25.0082 1.11701H9.9629C7.31499 1.11701 5.16071 3.27129 5.16071 5.91919V15.3706C5.68739 14.7197 6.20669 14.0139 6.7126 13.2607L8.00137 11.3423C8.10478 11.1886 8.27766 11.0959 8.46305 11.0955C8.46305 11.0955 8.46394 11.0953 8.46461 11.0953Z"/>
</mask>
<path d="M13.2777 17.6207C13.1643 17.6207 13.0506 17.5863 12.9534 17.5168C10.7545 15.9479 9.36519 13.9659 9.30712 13.8823L8.46774 12.6503L7.63931 13.8834C6.7939 15.1421 5.9103 16.2756 5.01352 17.2528C4.85761 17.4225 4.61371 17.4786 4.39951 17.3957C4.18509 17.3122 4.0437 17.1054 4.0437 16.8753V5.91897C4.0437 2.65527 6.69897 0 9.96267 0H25.008C28.2717 0 30.927 2.65527 30.927 5.91897V7.42551C30.927 7.61872 30.8271 7.79807 30.663 7.89992C30.4988 8.002 30.2935 8.0116 30.1207 7.92583L23.7081 4.7488L23.2721 5.6802C23.2401 5.74877 19.9706 12.6574 13.6166 17.5059C13.5167 17.5825 13.3972 17.6207 13.2777 17.6207ZM8.46461 11.0953C8.64933 11.0953 8.82198 11.1866 8.92607 11.3394L10.2273 13.2493C10.237 13.2634 11.4172 14.9471 13.2697 16.3623C19.1554 11.722 22.2299 5.27324 22.2607 5.20735L22.9384 3.75933C23.002 3.6233 23.1177 3.51877 23.2596 3.46896C23.4012 3.41938 23.5569 3.42876 23.6918 3.49532L29.8104 6.52583V5.91919C29.8104 3.27129 27.6561 1.11701 25.0082 1.11701H9.9629C7.31499 1.11701 5.16071 3.27129 5.16071 5.91919V15.3706C5.68739 14.7197 6.20669 14.0139 6.7126 13.2607L8.00137 11.3423C8.10478 11.1886 8.27766 11.0959 8.46305 11.0955C8.46305 11.0955 8.46394 11.0953 8.46461 11.0953Z" fill="#A3852F"/>
<path d="M12.9534 17.5168L14.6982 15.0764L14.6958 15.0746L12.9534 17.5168ZM9.30712 13.8823L6.82783 15.5714L6.83579 15.5831L6.84386 15.5947L9.30712 13.8823ZM8.46774 12.6503L10.947 10.9612L8.45031 7.29648L5.9775 10.9773L8.46774 12.6503ZM7.63931 13.8834L5.14907 12.2105L5.14895 12.2107L7.63931 13.8834ZM5.01352 17.2528L7.22305 19.2821L7.22383 19.2812L5.01352 17.2528ZM4.39951 17.3957L3.31048 20.1911L3.3171 20.1937L4.39951 17.3957ZM30.663 7.89992L29.0814 5.35068L29.0789 5.35223L30.663 7.89992ZM30.1207 7.92583L31.454 5.2384L31.4525 5.23766L30.1207 7.92583ZM23.7081 4.7488L25.0399 2.06063L22.2914 0.69893L20.991 3.47694L23.7081 4.7488ZM23.2721 5.6802L20.555 4.40834L20.5526 4.41348L23.2721 5.6802ZM13.6166 17.5059L11.7967 15.1209L11.7903 15.1258L13.6166 17.5059ZM8.92607 11.3394L6.44677 13.0285L6.44682 13.0286L8.92607 11.3394ZM10.2273 13.2493L7.7481 14.9385L7.7495 14.9406L10.2273 13.2493ZM13.2697 16.3623L11.4485 18.7462L13.2987 20.1596L15.1271 18.7181L13.2697 16.3623ZM22.2607 5.20735L19.5436 3.93574L19.5434 3.93617L22.2607 5.20735ZM22.9384 3.75933L25.6556 5.03094L25.6556 5.03091L22.9384 3.75933ZM23.2596 3.46896L22.2681 0.637527L22.2656 0.638433L23.2596 3.46896ZM23.6918 3.49532L25.0233 0.806986L25.0191 0.804946L23.6918 3.49532ZM29.8104 6.52583L28.4789 9.21415L32.8104 11.3595V6.52583H29.8104ZM5.16071 15.3706H2.16071V23.8471L7.49282 17.2577L5.16071 15.3706ZM6.7126 13.2607L4.22235 11.5878L4.22226 11.5879L6.7126 13.2607ZM8.00137 11.3423L5.51248 9.66737L5.51112 9.66939L8.00137 11.3423ZM8.46305 11.0955L8.47028 14.0955L8.83812 14.0946L9.19485 14.0049L8.46305 11.0955ZM13.2777 14.6207C13.7706 14.6207 14.2708 14.7708 14.6982 15.0764L11.2086 19.9572C11.8304 20.4017 12.558 20.6207 13.2777 20.6207V14.6207ZM14.6958 15.0746C12.9148 13.804 11.7595 12.1543 11.7704 12.1699L6.84386 15.5947C6.97086 15.7774 8.59416 18.0919 11.211 19.959L14.6958 15.0746ZM11.7864 12.1932L10.947 10.9612L5.98845 14.3394L6.82783 15.5714L11.7864 12.1932ZM5.9775 10.9773L5.14907 12.2105L10.1295 15.5564L10.958 14.3232L5.9775 10.9773ZM5.14895 12.2107C4.37634 13.3609 3.58479 14.3727 2.80321 15.2244L7.22383 19.2812C8.2358 18.1785 9.21147 16.9232 10.1297 15.5562L5.14895 12.2107ZM2.80399 15.2235C3.48755 14.4792 4.55165 14.2379 5.48192 14.5978L3.3171 20.1937C4.67577 20.7193 6.22768 20.3659 7.22305 19.2821L2.80399 15.2235ZM5.48853 14.6004C6.42621 14.9657 7.0437 15.8687 7.0437 16.8753H1.0437C1.0437 18.3421 1.94397 19.6587 3.31049 20.1911L5.48853 14.6004ZM7.0437 16.8753V5.91897H1.0437V16.8753H7.0437ZM7.0437 5.91897C7.0437 4.31213 8.35583 3 9.96267 3V-3C5.04212 -3 1.0437 0.998418 1.0437 5.91897H7.0437ZM9.96267 3H25.008V-3H9.96267V3ZM25.008 3C26.6149 3 27.927 4.31213 27.927 5.91897H33.927C33.927 0.998418 29.9286 -3 25.008 -3V3ZM27.927 5.91897V7.42551H33.927V5.91897H27.927ZM27.927 7.42551C27.927 6.58034 28.364 5.79575 29.0814 5.35068L32.2446 10.4492C33.2903 9.8004 33.927 8.6571 33.927 7.42551H27.927ZM29.0789 5.35223C29.7989 4.90458 30.6975 4.86308 31.454 5.2384L28.7874 10.6133C29.8896 11.1601 31.1987 11.0994 32.2471 10.4476L29.0789 5.35223ZM31.4525 5.23766L25.0399 2.06063L22.3763 7.43697L28.7889 10.614L31.4525 5.23766ZM20.991 3.47694L20.555 4.40834L25.9891 6.95206L26.4251 6.02066L20.991 3.47694ZM20.5526 4.41348C20.5788 4.35732 17.5602 10.7231 11.7967 15.1209L15.4364 19.8908C22.3811 14.5918 25.9015 7.14022 25.9915 6.94692L20.5526 4.41348ZM11.7903 15.1258C12.2313 14.7874 12.7585 14.6207 13.2777 14.6207V20.6207C14.036 20.6207 14.8022 20.3775 15.4429 19.8859L11.7903 15.1258ZM8.46461 14.0953C7.65575 14.0953 6.90076 13.6949 6.44677 13.0285L11.4054 9.6503C10.7432 8.67838 9.64291 8.09527 8.46461 8.09527V14.0953ZM6.44682 13.0286L7.7481 14.9385L12.7066 11.5602L11.4053 9.65023L6.44682 13.0286ZM7.7495 14.9406C7.84589 15.0818 9.23652 17.0564 11.4485 18.7462L15.0909 13.9783C13.5978 12.8377 12.628 11.445 12.7052 11.5581L7.7495 14.9406ZM15.1271 18.7181C21.5714 13.6375 24.8878 6.67157 24.9781 6.47853L19.5434 3.93617C19.572 3.87491 16.7394 9.80655 11.4123 14.0064L15.1271 18.7181ZM24.9779 6.47897L25.6556 5.03094L20.2212 2.48771L19.5436 3.93574L24.9779 6.47897ZM25.6556 5.03091C25.3767 5.62672 24.8704 6.0829 24.2536 6.2995L22.2656 0.638433C21.3651 0.954648 20.6274 1.61988 20.2212 2.48774L25.6556 5.03091ZM24.251 6.3004C23.6324 6.51703 22.9524 6.47577 22.3644 6.18569L25.0191 0.804946C24.1614 0.381744 23.17 0.321726 22.2681 0.637528L24.251 6.3004ZM22.3603 6.18364L28.4789 9.21415L31.1419 3.8375L25.0233 0.806989L22.3603 6.18364ZM32.8104 6.52583V5.91919H26.8104V6.52583H32.8104ZM32.8104 5.91919C32.8104 1.61444 29.313 -1.88299 25.0082 -1.88299V4.11701C25.9993 4.11701 26.8104 4.92815 26.8104 5.91919H32.8104ZM25.0082 -1.88299H9.9629V4.11701H25.0082V-1.88299ZM9.9629 -1.88299C5.65814 -1.88299 2.16071 1.61444 2.16071 5.91919H8.16071C8.16071 4.92815 8.97185 4.11701 9.9629 4.11701V-1.88299ZM2.16071 5.91919V15.3706H8.16071V5.91919H2.16071ZM7.49282 17.2577C8.07954 16.5326 8.65131 15.7547 9.20294 14.9335L4.22226 11.5879C3.76207 12.273 3.29524 12.9068 2.82861 13.4834L7.49282 17.2577ZM9.20285 14.9336L10.4916 13.0152L5.51112 9.66939L4.22235 11.5878L9.20285 14.9336ZM10.4903 13.0172C10.0398 13.6866 9.28461 14.0935 8.47028 14.0955L8.45582 8.09551C7.27071 8.09836 6.16975 8.69068 5.51248 9.66737L10.4903 13.0172ZM8.46305 11.0955C9.19485 14.0049 9.1946 14.0049 9.19435 14.005C9.19426 14.005 9.19401 14.0051 9.19384 14.0051C9.1935 14.0052 9.19316 14.0053 9.19282 14.0054C9.19215 14.0056 9.19146 14.0057 9.19078 14.0059C9.18941 14.0062 9.18802 14.0066 9.18663 14.0069C9.18383 14.0076 9.18097 14.0083 9.17805 14.009C9.17222 14.0105 9.16612 14.012 9.15977 14.0135C9.14712 14.0165 9.1331 14.0198 9.11785 14.0232C9.08838 14.0298 9.04948 14.038 9.00355 14.0464C8.95025 14.0561 8.73877 14.0953 8.46461 14.0953V8.09527C8.18978 8.09527 7.97753 8.13451 7.92361 8.14438C7.87737 8.15284 7.8382 8.16113 7.80854 8.16776C7.79321 8.17119 7.7791 8.17447 7.76641 8.1775C7.76003 8.17903 7.75391 8.18051 7.74806 8.18194C7.74514 8.18266 7.74228 8.18337 7.73948 8.18406C7.73808 8.18441 7.73669 8.18476 7.73532 8.1851C7.73463 8.18527 7.73395 8.18544 7.73327 8.18561C7.73293 8.1857 7.73259 8.18578 7.73226 8.18587C7.73209 8.18591 7.73184 8.18597 7.73175 8.186C7.7315 8.18606 7.73125 8.18612 8.46305 11.0955Z" fill="#A38526" mask="url(#path-5-inside-3_69_281)"/>
<path d="M5.88835 20.6014C5.9225 20.5911 5.95783 20.5804 5.99504 20.5691L6.00433 20.5662L6.00681 20.5655C6.11754 20.532 6.22213 20.4999 6.32397 20.4673C6.41017 20.4394 6.49778 20.4103 6.58724 20.38L6.58821 20.3797C6.69653 20.3432 6.80185 20.3071 6.90493 20.2706L6.90506 20.2705C6.98855 20.241 7.0745 20.2094 7.16694 20.1751L5.88835 20.6014ZM5.88835 20.6014C6.43313 20.0535 6.9632 19.4757 7.41705 18.9646C7.8772 18.4464 8.28269 17.9694 8.57944 17.6142L9.99298 18.8821C9.9394 18.9114 9.88665 18.9394 9.82509 18.9721C9.80484 18.9828 9.78364 18.9941 9.76114 19.006L9.75935 19.007C9.64897 19.0659 9.5457 19.1207 9.44459 19.1727C9.37513 19.2082 9.3054 19.2427 9.22546 19.2822C9.21475 19.2875 9.20386 19.2929 9.19276 19.2984L9.19069 19.2994C9.08227 19.3533 8.98147 19.403 8.883 19.4497L5.88835 20.6014ZM12.3194 19.2355C12.183 19.3244 12.0463 19.4131 11.9087 19.4989C11.9058 19.5007 11.9028 19.5025 11.8999 19.5043C11.8394 19.4239 11.7833 19.3296 11.7358 19.2218C11.7357 19.2216 11.7356 19.2213 11.7355 19.221C11.6798 19.0946 11.6359 18.9497 11.6102 18.787C11.6098 18.7847 11.6095 18.7824 11.6091 18.7801C11.5866 18.6341 11.5787 18.4738 11.5902 18.2997L11.8394 18.5233C11.8506 18.533 11.8617 18.5427 11.8728 18.5523L12.3194 19.2355ZM12.3194 19.2355C12.3445 19.2191 12.3698 19.203 12.3949 19.187C12.4036 19.1814 12.4123 19.1759 12.4209 19.1704L12.2611 18.895C12.1557 18.8004 12.0226 18.6828 11.8764 18.5554L12.3194 19.2355ZM7.47888 20.0567L7.48114 20.0558C7.56727 20.0224 7.65406 19.9879 7.74166 19.9523L7.74375 19.9514C7.84413 19.9108 7.94629 19.8682 8.05245 19.8231C8.14361 19.7844 8.22987 19.7474 8.31426 19.7103L8.91857 21.0831L8.31299 19.7108C8.41371 19.6664 8.51631 19.6198 8.62281 19.5709L8.62327 19.5707L7.47888 20.0567ZM7.47888 20.0567C7.37752 20.0962 7.2743 20.1352 7.16728 20.175L7.47888 20.0567ZM9.24893 20.934C9.3414 20.8915 9.43387 20.8486 9.52612 20.8049C9.63713 20.7521 9.74769 20.6976 9.85825 20.6427C9.86902 20.6374 9.87979 20.632 9.89056 20.6267C9.97003 20.5874 10.0495 20.5481 10.1287 20.5076C10.2413 20.4497 10.3537 20.3901 10.4658 20.3302C10.4847 20.3201 10.5037 20.3101 10.5227 20.3C10.5906 20.2639 10.6587 20.2278 10.7264 20.1906C10.8374 20.1299 10.9478 20.0669 11.0584 20.0038L9.24893 20.934ZM9.09948 16.9818C9.09954 16.9817 9.09959 16.9817 8.5816 16.5663L9.09962 16.9816C9.09958 16.9817 9.09953 16.9818 9.09948 16.9818ZM8.49989 16.5008C8.35029 16.3808 8.16337 16.231 7.92983 16.0437L8.49989 16.5008Z" fill="#A3852F" stroke="#A38526" stroke-width="3"/>
<path d="M32.1487 22.5542C35.7099 20.6759 39.7677 16.1309 39.7677 16.1309M32.1487 22.5542L25.1842 7.94303L39.5622 15.0677M32.1487 22.5542L31.6974 21.2003L31.1169 21.4345M32.1487 22.5542L31.1169 21.4345M39.7677 16.1309C40.0949 15.7643 40.0024 15.2861 39.5622 15.0677M39.7677 16.1309C39.5634 15.9485 39.3965 15.7994 39.26 15.6776L39.5622 15.0677M39.7677 16.1309L39.26 15.6776L38.8962 16.4117L38.8955 16.4114L39.2597 15.6773L38.6487 15.1319M39.5622 15.0677L39.2597 15.6773C38.6488 15.1318 38.6489 15.1318 38.6489 15.1317L38.6489 15.1317L38.6487 15.1319M38.6487 15.1319L38.6475 15.1333L38.6399 15.1417L38.6066 15.1786C38.5764 15.2119 38.5305 15.2622 38.4702 15.3275C38.3495 15.4583 38.1713 15.6491 37.9453 15.8844C37.9333 15.8969 37.9211 15.9096 37.9087 15.9224M38.6487 15.1319C38.5424 15.251 38.4171 15.5031 38.48 15.8284C38.5428 16.1533 38.7525 16.3402 38.895 16.4111L37.9087 15.9224M37.9087 15.9224C37.4585 16.39 36.8323 17.0199 36.1027 17.6981C34.5699 19.1229 32.7046 20.6432 31.1004 21.4019M37.9087 15.9224L24.9974 9.5245M31.1004 21.4019L23.9542 8.32966C24.3172 8.52871 24.5801 8.67285 24.7703 8.77722C24.7705 8.7773 24.7706 8.77738 24.7708 8.77746C24.8799 8.83735 24.9652 8.88413 25.0318 8.92068M31.1004 21.4019C30.8344 21.5275 30.5563 21.6524 30.2505 21.783L30.2518 21.7825L30.2522 21.7833L31.116 21.4349L31.1004 21.4019ZM31.1004 21.4019C31.1007 21.4018 31.101 21.4016 31.1014 21.4015L31.1169 21.4345M31.1004 21.4019L31.1169 21.4345M24.9974 9.5245C25.0245 9.47855 25.0496 9.43568 25.0727 9.39599C25.1349 9.28937 25.1826 9.20571 25.2155 9.14741L25.2538 9.07924L25.2645 9.05996L25.2677 9.05411L25.2688 9.05215L25.2692 9.05141M24.9974 9.5245L24.5182 9.28707C24.6694 9.36184 24.8233 9.36133 24.9427 9.32377C25.0622 9.28622 25.1882 9.19873 25.2692 9.05141M24.9974 9.5245C24.8789 9.72539 24.7226 9.98494 24.5304 10.2929C24.0585 11.049 23.3678 12.1001 22.4858 13.2923C20.7315 15.6636 18.1765 18.6529 15.0345 20.975C15.0345 20.9751 15.0344 20.9752 15.0343 20.9752L25.0318 8.92068M25.2692 9.05141C25.2692 9.05127 25.2693 9.05114 25.2694 9.051L25.0318 8.92068M25.2692 9.05141C25.2693 9.05124 25.2693 9.05108 25.0318 8.92068M29.5678 22.0629L29.5795 22.0584L29.5744 22.0604C29.5727 22.0628 29.571 22.0652 29.5693 22.0676L29.9243 21.9383L29.9879 21.9701L30.0566 21.9475L30.0668 21.9442L30.2525 21.8834L30.2871 21.872L30.2498 21.7847C30.2368 21.7896 30.2273 21.7934 30.2253 21.7942L30.2496 21.7843L30.2493 21.7835L30.2056 21.8021M29.5678 22.0629L30.0266 21.8742L30.0371 21.8699L30.0371 21.87L30.2056 21.8021M29.5678 22.0629L29.5511 22.0698L29.4575 22.1083L29.379 22.1369L29.3769 22.1376L29.3176 22.1593L29.3163 22.1597C29.3167 22.1597 29.3172 22.1596 29.3177 22.1595C29.3254 22.1584 29.3332 22.1573 29.341 22.1562L29.3196 22.165L29.0951 22.2574L29.092 22.2586L29.0338 22.2826L28.6605 22.4049C28.6643 22.402 28.6681 22.3991 28.6719 22.3962L28.6636 22.3991M29.5678 22.0629L29.5588 22.0663L29.3785 22.1355L29.3764 22.1363L29.3046 22.164M30.2056 21.8021L30.2004 21.8043L30.2086 21.8009L30.2177 21.7972L30.2056 21.8021ZM29.3046 22.164L29.0896 22.2423L29.0865 22.2434L28.6636 22.3991M29.3046 22.164L29.3024 22.1648L29.2979 22.1666L29.3041 22.1642L29.3163 22.1597L29.3046 22.164ZM28.6636 22.3991L28.6545 22.4022L28.4878 22.4597L28.4861 22.4603L28.3942 22.4921L28.3921 22.4928M28.6636 22.3991L28.6489 22.4045L28.5463 22.4423L28.4884 22.4612L28.4866 22.4618L28.4045 22.4887L28.4247 22.4823C28.4361 22.4788 28.4592 22.472 28.4709 22.4687C28.4716 22.4689 28.4723 22.469 28.4731 22.4692L28.4062 22.4939L28.1701 22.5808L28.1409 22.5915L27.751 22.7351L27.6671 22.7659V22.8448L27.6154 22.866L27.6131 22.867L27.4935 22.9162C27.5267 22.8834 27.5618 22.8511 27.5984 22.8195C27.5991 22.8189 27.5998 22.8183 27.6005 22.8178C27.645 22.7796 27.6918 22.7425 27.7405 22.7069L27.5824 22.7588L27.5799 22.7596L27.1928 22.8867L27.1889 22.8731L27.2195 22.864C27.3478 22.8263 27.4638 22.7921 27.5789 22.7564L27.5814 22.7557L27.7443 22.7055L27.7544 22.7023M28.3921 22.4928L28.2412 22.5424L28.1845 22.561C28.1747 22.5642 28.1692 22.566 28.1667 22.5668C28.165 22.5673 28.1647 22.5675 28.1653 22.5673L28.1508 22.5719L28.1359 22.5769C28.1383 22.5761 28.1306 22.5787 28.1039 22.5875L28.0133 22.6173L27.7544 22.7023M28.3921 22.4928L28.3861 22.4949L28.3915 22.493L28.4024 22.4894L28.3921 22.4928ZM27.7544 22.7023L27.7416 22.7065L27.7541 22.7025L27.7609 22.7004L27.7544 22.7023ZM27.6095 24.3129L27.5565 24.1317H27.9721C27.9664 24.156 27.9632 24.1814 27.9624 24.2078C27.8567 24.2401 27.7507 24.2713 27.6447 24.3025L27.6095 24.3129ZM27.6095 24.3129L27.5561 24.1317H26.9631L27.0557 24.4705L26.9626 24.1317H26.7094V23.4278L26.5019 23.3241L26.7094 23.2387V23.2112L26.658 23.0243C26.6582 23.0242 26.6585 23.0242 26.6587 23.0241M27.6095 24.3129C27.4252 24.3667 27.2409 24.4197 27.0558 24.4706C26.9153 24.509 26.7748 24.5468 26.6329 24.5834C26.4887 24.6212 26.3443 24.6576 26.1998 24.6932L26.0257 24.519L25.7236 23.2654L25.7215 23.2659M26.6587 23.0241C26.6592 23.024 26.6596 23.0238 26.6601 23.0237L26.7094 23.204V23.0453L27.1897 22.8877L27.1857 22.874L27.1872 22.8735C27.0077 22.926 26.8325 22.9763 26.6587 23.0241ZM26.6587 23.0241C26.5228 23.0613 26.3901 23.0969 26.2578 23.131L26.2527 23.1324C26.0779 23.1782 25.9011 23.2223 25.7215 23.2659M25.7215 23.2659L25.7046 23.27C25.5678 23.3029 25.4413 23.3334 25.3148 23.3624M25.7215 23.2659L26.0253 24.5186L25.5232 24.0166L25.4754 24.0644L25.3148 23.3624M25.3148 23.3624C25.1362 23.4032 24.9552 23.4425 24.7633 23.4831L24.759 23.484C24.6213 23.5136 24.4915 23.5413 24.3631 23.5671L24.3623 23.5673L24.1906 23.6019L24.1777 23.6045M25.3148 23.3624C25.3147 23.3624 25.3147 23.3624 25.3146 23.3624L25.4753 24.0645L24.9894 24.5504L24.9884 24.5514L24.6775 24.8623C24.6575 24.7732 24.6205 24.6776 24.5666 24.5797C24.5665 24.5794 24.5663 24.5792 24.5662 24.5789C24.5025 24.4634 24.4155 24.3449 24.3054 24.2303L24.1889 23.6024L24.1777 23.6045M24.1777 23.6045L23.7351 23.6864L23.7351 23.6864C23.6976 23.6933 23.5896 23.7133 23.4903 23.7319M24.1777 23.6045L24.1691 23.6062L24.1663 23.6068L24.1657 23.6069L24.1651 23.607L24.1641 23.6072L24.1619 23.6077L24.1577 23.6085L24.1492 23.6103C24.0583 23.6945 23.9772 23.7816 23.9055 23.87V23.7145L23.7441 23.7356L23.6245 23.7512C23.6027 23.741 23.5807 23.731 23.5583 23.7213L23.5292 23.7255L23.515 23.7277L23.5079 23.7289L23.5044 23.7294L23.5027 23.7297L23.5016 23.7299L23.5 23.7302L23.4903 23.7319M23.4903 23.7319L23.4896 23.732L23.4088 23.7459L23.4075 23.7461L23.2231 23.778L23.2075 23.7807M23.4903 23.7319C23.4866 23.7326 23.4828 23.7333 23.4792 23.7339L23.4858 23.7693L23.4145 23.7786L23.4131 23.7788L23.2228 23.8037L23.2189 23.7789L23.2075 23.7807M23.2075 23.7807L22.7241 23.857L22.7259 23.8686M23.2075 23.7807L23.1999 23.782L23.1967 23.7825L23.1958 23.7827L23.1946 23.7829L23.1922 23.7833L23.1875 23.7842L23.1782 23.7858L23.1599 23.7894C23.14 23.7992 23.1204 23.8093 23.101 23.8196L22.7259 23.8686M22.7259 23.8686L22.724 23.857C22.6837 23.8633 22.5869 23.8787 22.5033 23.8924M22.7259 23.8686L22.4942 23.8989L22.4432 23.9055L22.4428 23.9032C22.4502 23.9017 22.4554 23.9008 22.4576 23.9004L22.4579 23.9003C22.4725 23.8975 22.4839 23.8956 22.486 23.8953L22.4427 23.9023L22.4426 23.9015L22.5033 23.8924M22.5033 23.8924C22.5 23.893 22.4967 23.8935 22.4934 23.894L22.5002 23.8929L22.5073 23.8918L22.5042 23.8923L22.5033 23.8924ZM22.2111 23.9358L22.2255 23.934L22.2648 23.9298C22.266 23.9302 22.2671 23.9306 22.2682 23.9309L22.2117 23.9402L21.5778 24.0441L21.236 24.1002V25.3743H21.7567H21.9952L21.9482 25.4681C21.9114 25.4767 21.8768 25.4863 21.8445 25.497C21.8125 25.5012 21.7884 25.5044 21.7745 25.5063C21.717 25.514 21.2857 25.5658 21.0605 25.591V24.1272L20.8311 24.1427L20.374 24.1736L20.3723 24.1542C20.3714 24.1542 20.3706 24.1543 20.3697 24.1544M22.2111 23.9358L22.3454 23.9183L22.4395 23.9029L22.4394 23.902L22.2188 23.9345L22.1991 23.9374M22.2111 23.9358L22.2059 23.9365L22.1962 23.9379L22.1991 23.9374M22.2111 23.9358C22.2071 23.9364 22.2031 23.9369 22.1991 23.9374M22.1991 23.9374C21.9208 23.9738 21.6414 24.0107 21.5745 24.0197L21.571 24.0201C21.5668 24.0207 21.5586 24.0217 21.5452 24.0233L21.4693 24.0326L21.2485 24.0591C21.0814 24.0789 20.9093 24.0989 20.8273 24.1076C20.6467 24.1269 20.4409 24.1477 20.3697 24.1544M20.3697 24.1544C20.285 24.1621 20.0094 24.1879 19.753 24.2119M20.3697 24.1544C20.369 24.1545 20.3683 24.1545 20.3677 24.1546L20.3695 24.1739L19.7425 24.2162L19.7217 24.2176C19.7238 24.2165 19.7259 24.2154 19.728 24.2144L19.7422 24.213M19.753 24.2119L19.7339 24.2135L19.5237 24.2301L19.5227 24.2301L19.4517 24.2358L19.4504 24.2359M19.753 24.2119L19.7551 24.2118L19.746 24.2126L19.7422 24.213M19.753 24.2119C19.7494 24.2123 19.7458 24.2126 19.7422 24.213M19.4504 24.2359C19.4008 24.2393 19.3545 24.2425 19.3155 24.2452C19.277 24.2479 19.2457 24.25 19.2255 24.2514C19.179 24.2544 18.9566 24.2703 18.7384 24.2858M19.4504 24.2359L19.4503 24.2359L19.4588 24.2353M19.4504 24.2359C19.4532 24.2357 19.456 24.2355 19.4588 24.2353M18.7384 24.2858L18.7203 24.2869L18.548 24.2975L18.5481 24.298L18.621 24.2942L18.731 24.2864M18.7384 24.2858L18.739 24.2858L18.7319 24.2863L18.731 24.2864M18.7384 24.2858C18.7359 24.286 18.7335 24.2862 18.731 24.2864M18.731 24.2864L18.7177 24.2874L18.6894 24.2899C18.6889 24.2902 18.6883 24.2905 18.6877 24.2908L18.7311 24.2885L19.1878 24.2649L19.2262 24.2613L19.4598 24.2394L19.4849 24.2371C19.4823 24.2361 19.4797 24.2352 19.4771 24.2342L19.4596 24.2353L19.5228 24.231L19.5238 24.2309L19.6184 24.2246L19.7422 24.213M17.7512 24.3384L17.7355 24.339L17.5665 24.3456L17.5663 24.3456C17.4454 24.3504 17.3249 24.3542 17.1972 24.3582C17.1769 24.3589 17.1564 24.3595 17.1357 24.3602L17.1351 24.3602C16.951 24.3661 16.7705 24.3713 16.5914 24.3749L16.5905 24.3749C16.4454 24.378 16.2998 24.3804 16.153 24.3826C16.1526 24.3826 16.1523 24.3826 16.1519 24.3826L15.9931 24.3847L15.9778 24.3849L15.98 24.3849C15.9784 24.3849 15.9769 24.3849 15.9753 24.3849C15.7723 24.3863 15.5437 24.3876 15.4631 24.3876L15.4592 24.3876C15.3777 24.3878 15.191 24.3873 15.0444 24.3867M17.7512 24.3384L12.5945 25.8246L12.6637 24.3262C12.7651 24.3309 13.1163 24.3451 13.2019 24.348H13.2019C13.2941 24.3511 13.5308 24.359 13.7296 24.3654M17.7512 24.3384C17.9631 24.3276 18.1567 24.3179 18.1892 24.3161L18.1982 24.3156L18.1982 24.3156C18.2339 24.3139 18.3487 24.3083 18.4536 24.3028C18.4544 24.3028 18.4552 24.3028 18.456 24.3027C18.4562 24.3027 18.4564 24.3027 18.4566 24.3027C18.4568 24.3027 18.4569 24.3027 18.4571 24.3027L18.4621 24.3024L18.5414 24.2979L17.7512 24.3384ZM15.0444 24.3867C15.0446 24.3867 15.0449 24.3867 15.0451 24.3867L15.036 25.8867L15.0428 24.3867C15.0433 24.3867 15.0439 24.3867 15.0444 24.3867ZM15.0444 24.3867C14.9015 24.3858 14.627 24.3832 14.4336 24.3806C14.4324 24.3806 14.4313 24.3806 14.4302 24.3806C14.4298 24.3806 14.4293 24.3805 14.4289 24.3805L14.4159 24.3803L14.2586 24.3771L14.2567 24.3771C14.2354 24.3767 14.2145 24.3763 14.1939 24.3759C14.0944 24.3741 14.0017 24.3724 13.9086 24.37L13.9078 24.37L13.7475 24.3659L13.7296 24.3654M13.7296 24.3654C13.7312 24.3655 13.7329 24.3655 13.7346 24.3656L13.7324 24.4353L13.7957 24.372L13.9077 24.3735L13.9085 24.3735L14.2567 24.3782L14.2586 24.3782L14.422 24.3805C14.366 24.3912 14.3108 24.404 14.2578 24.4192C14.2571 24.4194 14.2565 24.4195 14.2559 24.4197C14.1145 24.4605 13.9884 24.5189 13.9025 24.6036C13.9022 24.6038 13.902 24.6041 13.9018 24.6043C13.7688 24.736 13.7325 24.9313 13.886 25.2229C13.8861 25.223 13.8862 25.2232 13.8863 25.2234C13.9576 25.3588 14.0698 25.515 14.2322 25.6951C14.2322 25.6952 14.2323 25.6953 14.2324 25.6954C14.2856 25.7544 14.3443 25.8161 14.4086 25.8804L14.2322 25.704L14.232 25.7038L13.8828 25.3547L13.8826 25.3544L13.7083 25.1802L13.6863 25.8648C13.6863 25.5788 13.6869 25.3473 13.6882 25.16L13.3479 24.8197L13.7025 24.4652C13.7089 24.365 13.7167 24.3651 13.7244 24.3653L13.7245 24.3653L13.7246 24.3653H13.7246L13.7246 24.3653H13.7247L13.725 24.3653L13.7275 24.3653L13.7296 24.3654ZM19.4588 24.2353L19.4592 24.2353L19.4594 24.2353C19.4592 24.2353 19.459 24.2353 19.4588 24.2353ZM8.54903 25.5244C8.46304 25.5157 8.15012 25.4826 8.05854 25.4726L8.54903 25.5244ZM8.54903 25.5244C8.63502 25.5335 8.78825 25.5487 8.88921 25.5586L8.54903 25.5244ZM30.9239 21.8889C31.5612 22.1294 31.8453 22.6335 31.182 23.0137C31.1145 23.0435 31.0461 23.0735 30.9764 23.1037C30.9134 22.9997 30.8299 22.9336 30.7343 22.9182L30.6917 22.8179L30.9239 21.8889ZM30.6914 22.819L30.7337 22.9181C30.7126 22.9147 30.691 22.9138 30.6688 22.9155C30.6683 22.9155 30.6678 22.9156 30.6672 22.9156L30.6679 22.9131L30.6914 22.819ZM30.5477 21.7867L30.2895 21.8712L30.2523 21.7837C30.2544 21.783 30.2566 21.7822 30.2588 21.7813C30.2757 21.7752 30.3098 21.7635 30.3269 21.758C30.4024 21.7643 30.4762 21.7739 30.5477 21.7867ZM29.3217 22.8804C29.6081 23.1084 29.7697 23.3747 29.7801 23.5872L29.6022 23.652L29.2507 23.7814C29.1347 23.5644 29.1007 23.2058 29.2135 22.8003C29.2503 22.8256 29.2854 22.8516 29.3189 22.8781C29.3198 22.8789 29.3207 22.8796 29.3217 22.8804ZM27.9851 24.0657L27.9935 24.0699C27.9921 24.0731 27.9907 24.0762 27.9893 24.0794C27.9893 24.0795 27.9892 24.0796 27.9892 24.0797C27.9831 24.0939 27.9781 24.1086 27.9742 24.1237C27.7951 24.1107 27.6483 24.0824 27.5303 24.042L27.4606 23.8035L27.9848 24.0655L27.9851 24.0657ZM25.0741 24.9506C25.1798 24.9282 25.2837 24.9059 25.3866 24.8834C25.3147 24.7548 25.1912 24.6891 25.0252 24.7196C25.025 24.7196 25.0247 24.7196 25.0245 24.7197C24.925 24.7381 24.8103 24.7909 24.6824 24.8854C24.6923 24.9364 24.6964 24.985 24.6948 25.0304C24.8216 25.0047 24.9478 24.9777 25.0741 24.9506ZM22.5155 24.0294C22.5763 24.0576 22.6345 24.0878 22.6899 24.1197C22.6353 24.1776 22.5911 24.2382 22.56 24.3006C22.541 24.3388 22.527 24.3776 22.5186 24.4168L22.4576 24.0034C22.4772 24.0118 22.4965 24.0205 22.5155 24.0294ZM22.4543 24.002L22.5173 24.4228C22.5063 24.478 22.5063 24.534 22.5193 24.5904L22.4136 24.5375L22.3154 24.7338L22.0433 25.2781C21.871 25.2153 21.7633 25.1252 21.7089 25.0187C21.667 24.9366 21.6566 24.8448 21.6725 24.7482C21.7131 24.5022 21.9241 24.2248 22.2192 23.9972C22.2442 23.9779 22.2698 23.959 22.296 23.9405C22.3504 23.9594 22.4032 23.98 22.4543 24.002ZM23.0058 25.0771C23.0765 25.1136 23.1556 25.1496 23.2438 25.1847C23.1924 25.2409 23.1201 25.2896 23.0248 25.3281L22.9571 25.3388C22.9301 25.343 22.8752 25.3517 22.8172 25.3611C22.8254 25.2651 22.8609 25.1848 22.9241 25.1288C22.9475 25.1081 22.9747 25.0907 23.0058 25.0771ZM6.96682 25.0552C7.07846 25.0223 7.18991 24.9885 7.30118 24.954L7.25065 25.3801C7.16399 25.3696 7.02015 25.352 6.93103 25.3408C6.84169 25.3298 6.54552 25.2923 6.46154 25.2811C6.43972 25.2782 6.41419 25.2749 6.38682 25.2713C6.34424 25.2656 6.29722 25.2594 6.25282 25.2535C6.32628 25.2344 6.39966 25.2148 6.47297 25.195C6.47298 25.195 6.47299 25.1949 6.473 25.1949C6.63772 25.1503 6.80205 25.1038 6.96598 25.0554C6.96626 25.0554 6.96654 25.0553 6.96682 25.0552ZM7.90027 23.9457C7.81341 23.9357 7.51732 23.9012 7.42953 23.8908L9.57952 24.1173C9.56171 24.1157 9.54591 24.1142 9.53282 24.113C9.46149 24.1065 9.13483 24.0754 9.03423 24.0656C8.9334 24.0558 8.78637 24.0412 8.70787 24.0328L8.70787 24.0328L8.7002 24.032C8.6186 24.0237 8.30984 23.9911 8.2222 23.9815L8.21858 23.9811C8.13132 23.9718 7.98694 23.9556 7.90027 23.9457ZM11.4238 24.2596C11.423 24.2596 11.422 24.2595 11.4209 24.2594C11.4196 24.2594 11.4183 24.2593 11.4171 24.2592L11.3298 25.7567L11.4238 24.2596ZM11.7364 24.2785L11.6483 25.7759L11.7391 24.2786L11.7364 24.2785ZM19.2642 24.8444L19.316 25.6398L19.2642 24.8444ZM19.3204 25.7064L19.3227 25.7422L19.3204 25.7064ZM22.4131 23.9094C22.4233 23.9072 22.4323 23.9053 22.4396 23.9039L22.4399 23.9059L22.4131 23.9094ZM27.1342 23.6403L27.4592 23.8028L27.5296 24.0418C27.2745 23.9542 27.1543 23.8098 27.1342 23.6403Z" fill="#A3852F" stroke="#A38526" stroke-width="3"/>
</svg>
