<svg width="14" height="14" viewBox="0 0 14 14" fill="none" xmlns="http://www.w3.org/2000/svg">
<path d="M7.05886 3.84175C6.7053 3.41747 6.07473 3.36015 5.65046 3.71371C5.22618 4.06728 5.16886 4.69784 5.52242 5.12212L7.05886 3.84175ZM8.50037 7.1336L9.26859 7.77379C9.57763 7.40294 9.57763 6.86426 9.26859 6.49342L8.50037 7.1336ZM5.52242 9.14509C5.16886 9.56936 5.22618 10.1999 5.65046 10.5535C6.07473 10.9071 6.7053 10.8497 7.05886 10.4255L5.52242 9.14509ZM5.52242 5.12212L7.73214 7.77379L9.26859 6.49342L7.05886 3.84175L5.52242 5.12212ZM7.73214 6.49342L5.52242 9.14509L7.05886 10.4255L9.26859 7.77379L7.73214 6.49342ZM7 12C4.23858 12 2 9.76142 2 7L6.70107e-08 7C1.10188e-07 10.866 3.13401 14 7 14L7 12ZM2 7C2 4.23858 4.23858 2 7 2L7 7.63953e-08C3.13401 1.25619e-07 2.38335e-08 3.13401 6.70107e-08 7L2 7ZM7 2C9.76142 2 12 4.23858 12 7L14 7C14 3.13401 10.866 2.71713e-08 7 7.63953e-08L7 2ZM12 7C12 9.76142 9.76142 12 7 12L7 14C10.866 14 14 10.866 14 7L12 7Z" fill="#A38526"/>
</svg>
